<svg width="150" height="125" viewBox="0 0 150 125" fill="none" xmlns="http://www.w3.org/2000/svg"><path d="M77.6147 114C108.353 114 133.273 88.9764 133.273 58C133.273 27.0236 108.243 2 77.6147 2C46.8762 2 21.9561 27.0236 21.9561 58C21.9561 88.9764 46.8762 114 77.6147 114Z" fill="#F3F6FF"/><path d="M140.338 40.2571C142.824 40.2571 144.839 38.2336 144.839 35.7375C144.839 33.2413 142.824 31.2178 140.338 31.2178C137.852 31.2178 135.837 33.2413 135.837 35.7375C135.837 38.2336 137.852 40.2571 140.338 40.2571Z" fill="#F3F6FF"/><path d="M146.926 22.6195C148.624 22.6195 150 21.2376 150 19.5329C150 17.8282 148.624 16.4463 146.926 16.4463C145.229 16.4463 143.853 17.8282 143.853 19.5329C143.853 21.2376 145.229 22.6195 146.926 22.6195Z" fill="#F3F6FF"/><path d="M24.4801 21.2914C26.1777 21.2914 27.5539 19.9095 27.5539 18.2048C27.5539 16.5001 26.1777 15.1182 24.4801 15.1182C22.7825 15.1182 21.4062 16.5001 21.4062 18.2048C21.4062 19.9095 22.7825 21.2914 24.4801 21.2914Z" fill="#F3F6FF"/><path d="M5.70858 80.8191C8.86134 80.8191 11.4172 78.2526 11.4172 75.0868C11.4172 71.9209 8.86134 69.3545 5.70858 69.3545C2.55582 69.3545 0 71.9209 0 75.0868C0 78.2526 2.55582 80.8191 5.70858 80.8191Z" fill="#F3F6FF"/><g filter="url(#filter0_d_309_5473)"><path d="M122.927 106.878H29.812C27.9981 106.878 26.5098 105.384 26.5098 103.562V80.7242C26.5098 78.9027 27.9981 77.4082 29.812 77.4082H122.927C124.74 77.4082 126.229 78.9027 126.229 80.7242V103.562C126.229 105.384 124.74 106.878 122.927 106.878Z" fill="url(#paint0_linear_309_5473)"/></g><path d="M107.485 88.477H55.6259C54.5097 88.477 53.626 87.796 53.626 86.9358C53.626 86.0755 54.5097 85.3945 55.6259 85.3945H107.485C108.602 85.3945 109.485 86.0755 109.485 86.9358C109.485 87.796 108.602 88.477 107.485 88.477Z" fill="#E0E7FF"/><path d="M88.8811 97.8647H55.6259C54.5097 97.8647 53.626 97.1837 53.626 96.3235C53.626 95.4632 54.5097 94.7822 55.6259 94.7822H88.8811C89.9974 94.7822 90.8811 95.4632 90.8811 96.3235C90.8811 97.1837 89.9974 97.8647 88.8811 97.8647Z" fill="#E0E7FF"/><path d="M40.277 100.433C44.8493 100.433 48.5559 96.7112 48.5559 92.1199C48.5559 87.5286 44.8493 83.8066 40.277 83.8066C35.7046 83.8066 31.998 87.5286 31.998 92.1199C31.998 96.7112 35.7046 100.433 40.277 100.433Z" fill="#CCD5EB"/><g filter="url(#filter1_d_309_5473)"><path d="M126.053 35.6606H32.939C31.1251 35.6606 29.6367 34.1661 29.6367 32.3446V9.50641C29.6367 7.68495 31.1251 6.19043 32.939 6.19043H126.053C127.867 6.19043 129.356 7.68495 129.356 9.50641V32.3446C129.356 34.1661 127.867 35.6606 126.053 35.6606Z" fill="url(#paint1_linear_309_5473)"/></g><path d="M110.613 17.2592H58.7539C57.6376 17.2592 56.7539 16.5782 56.7539 15.718C56.7539 14.8578 57.6376 14.1768 58.7539 14.1768H110.613C111.73 14.1768 112.613 14.8578 112.613 15.718C112.613 16.5782 111.73 17.2592 110.613 17.2592Z" fill="#E0E7FF"/><path d="M92.0091 26.6469H58.7539C57.6376 26.6469 56.7539 25.9659 56.7539 25.1057C56.7539 24.2455 57.6376 23.5645 58.7539 23.5645H92.0091C93.1253 23.5645 94.009 24.2455 94.009 25.1057C94.009 25.9659 93.1253 26.6469 92.0091 26.6469Z" fill="#E0E7FF"/><path d="M43.4049 29.2155C47.9772 29.2155 51.6838 25.4935 51.6838 20.9022C51.6838 16.3109 47.9772 12.5889 43.4049 12.5889C38.8326 12.5889 35.126 16.3109 35.126 20.9022C35.126 25.4935 38.8326 29.2155 43.4049 29.2155Z" fill="#CCD5EB"/><g filter="url(#filter2_d_309_5473)"><path d="M111.763 71.0932H18.6021C16.7881 71.0932 15.2998 69.5987 15.2998 67.7772V44.939C15.2998 43.1176 16.7881 41.623 18.6021 41.623H111.717C113.531 41.623 115.019 43.1176 115.019 44.939V67.7772C115.065 69.6454 113.577 71.0932 111.763 71.0932Z" fill="url(#paint2_linear_309_5473)"/></g><path d="M29.1139 64.6949C33.6862 64.6949 37.3928 60.973 37.3928 56.3817C37.3928 51.7903 33.6862 48.0684 29.1139 48.0684C24.5416 48.0684 20.835 51.7903 20.835 56.3817C20.835 60.973 24.5416 64.6949 29.1139 64.6949Z" fill="#CCD5EB"/><path d="M96.3223 52.6918H44.4629C43.3466 52.6918 42.4629 52.0108 42.4629 51.1506C42.4629 50.2904 43.3466 49.6094 44.4629 49.6094H96.3223C97.4386 49.6094 98.3223 50.2904 98.3223 51.1506C98.3223 52.0108 97.3921 52.6918 96.3223 52.6918Z" fill="#E0E7FF"/><path d="M77.718 62.1264H44.4629C43.3466 62.1264 42.4629 61.4454 42.4629 60.5852C42.4629 59.725 43.3466 59.0439 44.4629 59.0439H77.718C78.8343 59.0439 79.718 59.725 79.718 60.5852C79.6715 61.4454 78.7878 62.1264 77.718 62.1264Z" fill="#E0E7FF"/><defs><filter id="filter0_d_309_5473" x="14.5098" y="71.4082" width="123.719" height="53.4697" filterUnits="userSpaceOnUse" color-interpolation-filters="sRGB"><feFlood flood-opacity="0" result="BackgroundImageFix"/><feColorMatrix in="SourceAlpha" type="matrix" values="0 0 0 0 0 0 0 0 0 0 0 0 0 0 0 0 0 0 127 0" result="hardAlpha"/><feOffset dy="6"/><feGaussianBlur stdDeviation="6"/><feColorMatrix type="matrix" values="0 0 0 0 0.397708 0 0 0 0 0.47749 0 0 0 0 0.575 0 0 0 0.25 0"/><feBlend mode="normal" in2="BackgroundImageFix" result="effect1_dropShadow_309_5473"/><feBlend mode="normal" in="SourceGraphic" in2="effect1_dropShadow_309_5473" result="shape"/></filter><filter id="filter1_d_309_5473" x="17.6367" y="0.19043" width="123.719" height="53.4697" filterUnits="userSpaceOnUse" color-interpolation-filters="sRGB"><feFlood flood-opacity="0" result="BackgroundImageFix"/><feColorMatrix in="SourceAlpha" type="matrix" values="0 0 0 0 0 0 0 0 0 0 0 0 0 0 0 0 0 0 127 0" result="hardAlpha"/><feOffset dy="6"/><feGaussianBlur stdDeviation="6"/><feColorMatrix type="matrix" values="0 0 0 0 0.397708 0 0 0 0 0.47749 0 0 0 0 0.575 0 0 0 0.25 0"/><feBlend mode="normal" in2="BackgroundImageFix" result="effect1_dropShadow_309_5473"/><feBlend mode="normal" in="SourceGraphic" in2="effect1_dropShadow_309_5473" result="shape"/></filter><filter id="filter2_d_309_5473" x="3.2998" y="35.623" width="123.72" height="53.4697" filterUnits="userSpaceOnUse" color-interpolation-filters="sRGB"><feFlood flood-opacity="0" result="BackgroundImageFix"/><feColorMatrix in="SourceAlpha" type="matrix" values="0 0 0 0 0 0 0 0 0 0 0 0 0 0 0 0 0 0 127 0" result="hardAlpha"/><feOffset dy="6"/><feGaussianBlur stdDeviation="6"/><feColorMatrix type="matrix" values="0 0 0 0 0.397708 0 0 0 0 0.47749 0 0 0 0 0.575 0 0 0 0.25 0"/><feBlend mode="normal" in2="BackgroundImageFix" result="effect1_dropShadow_309_5473"/><feBlend mode="normal" in="SourceGraphic" in2="effect1_dropShadow_309_5473" result="shape"/></filter><linearGradient id="paint0_linear_309_5473" x1="76.3368" y1="76.7265" x2="76.3368" y2="107.196" gradientUnits="userSpaceOnUse"><stop stop-color="#FDFEFF"/><stop offset="0.9964" stop-color="#F9F9FF"/></linearGradient><linearGradient id="paint1_linear_309_5473" x1="79.4637" y1="5.50876" x2="79.4637" y2="35.9783" gradientUnits="userSpaceOnUse"><stop stop-color="#FDFEFF"/><stop offset="0.9964" stop-color="#F9F9FF"/></linearGradient><linearGradient id="paint2_linear_309_5473" x1="65.1274" y1="40.9414" x2="65.1274" y2="71.4109" gradientUnits="userSpaceOnUse"><stop stop-color="#FDFEFF"/><stop offset="0.9964" stop-color="#F9F9FF"/></linearGradient></defs></svg>