<svg width="20" height="20" viewBox="0 0 20 20" fill="none" xmlns="http://www.w3.org/2000/svg"><path fill-rule="evenodd" clip-rule="evenodd" d="M3.52246 3.52295C3.77441 3.271 4.1829 3.271 4.43486 3.52295L10.0002 9.08825L15.5655 3.52295C15.8174 3.271 16.2259 3.271 16.4779 3.52295C16.7298 3.7749 16.7298 4.18339 16.4779 4.43534L10.9126 10.0007L16.4779 15.566C16.7298 15.8179 16.7298 16.2264 16.4779 16.4784C16.2259 16.7303 15.8174 16.7303 15.5655 16.4784L10.0002 10.913L4.43486 16.4784C4.1829 16.7303 3.77441 16.7303 3.52246 16.4784C3.27051 16.2264 3.27051 15.8179 3.52246 15.566L9.08777 10.0007L3.52246 4.43534C3.27051 4.18339 3.27051 3.7749 3.52246 3.52295Z" fill="#6978A0"/></svg>