<svg width="80" height="80" viewBox="0 0 80 80" fill="none" xmlns="http://www.w3.org/2000/svg"><path fill-rule="evenodd" clip-rule="evenodd" d="M70.1012 16.1008C71.0775 15.1245 71.0775 13.5416 70.1012 12.5652C69.1249 11.5889 67.542 11.5889 66.5657 12.5652L13.2324 65.8986C12.256 66.8749 12.256 68.4578 13.2324 69.4341C14.2087 70.4104 15.7916 70.4104 16.7679 69.4341L23.7023 62.4997H61.7443C69.9873 62.4997 76.6695 55.8175 76.6695 47.5745C76.6695 39.3315 69.9873 32.6493 61.7443 32.6493C61.5309 32.6493 61.3185 32.6538 61.1072 32.6627C60.9815 30.5004 60.4748 28.4404 59.6532 26.5488L70.1012 16.1008ZM55.7288 30.4732L28.7023 57.4997H61.7443C67.2258 57.4997 71.6695 53.056 71.6695 47.5745C71.6695 42.0929 67.2258 37.6493 61.7443 37.6493C60.8524 37.6493 59.9916 37.7663 59.1748 37.9845C58.3741 38.1983 57.5195 38.0015 56.893 37.4589C56.2666 36.9163 55.9497 36.0985 56.047 35.2755C56.107 34.7682 56.138 34.2511 56.138 33.7256C56.138 32.6026 55.996 31.5128 55.7288 30.4732Z" fill="#DA2722"/><path d="M43.1065 15.6941C46.7961 15.6941 50.2269 16.8023 53.0842 18.704C53.5072 18.9855 53.5497 19.5812 53.1904 19.9405L50.7651 22.3659C50.485 22.6459 50.048 22.6876 49.7067 22.4868C47.771 21.3475 45.515 20.6941 43.1065 20.6941C37.9388 20.6941 33.4688 23.7019 31.3605 28.0734C30.7937 29.2488 29.4182 29.7905 28.2021 29.3173C26.5664 28.6808 24.7848 28.3304 22.9155 28.3304C14.8606 28.3304 8.33081 34.8601 8.33081 42.915C8.33081 48.4028 11.3617 53.1826 15.8407 55.6719C16.35 55.955 16.4772 56.6537 16.0652 57.0657L13.6548 59.4761C13.389 59.742 12.977 59.7985 12.657 59.6013C7.06114 56.1537 3.33081 49.97 3.33081 42.915C3.33081 32.0987 12.0992 23.3304 22.9155 23.3304C24.6477 23.3304 26.3301 23.5558 27.9335 23.9798C31.1393 18.9988 36.7351 15.6941 43.1065 15.6941Z" fill="#DA2722"/></svg>